ffmpeg version 3.4.8-0ubuntu0.2 Copyright (c) 2000-2020 the FFmpeg developers
  built with gcc 7 (Ubuntu 7.5.0-3ubuntu1~18.04)
  configuration: --prefix=/usr --extra-version=0ubuntu0.2 --toolchain=hardened --libdir=/usr/lib/x86_64-linux-gnu --incdir=/usr/include/x86_64-linux-gnu --enable-gpl --disable-stripping --enable-avresample --enable-avisynth --enable-gnutls --enable-ladspa --enable-libass --enable-libbluray --enable-libbs2b --enable-libcaca --enable-libcdio --enable-libflite --enable-libfontconfig --enable-libfreetype --enable-libfribidi --enable-libgme --enable-libgsm --enable-libmp3lame --enable-libmysofa --enable-libopenjpeg --enable-libopenmpt --enable-libopus --enable-libpulse --enable-librubberband --enable-librsvg --enable-libshine --enable-libsnappy --enable-libsoxr --enable-libspeex --enable-libssh --enable-libtheora --enable-libtwolame --enable-libvorbis --enable-libvpx --enable-libwavpack --enable-libwebp --enable-libx265 --enable-libxml2 --enable-libxvid --enable-libzmq --enable-libzvbi --enable-omx --enable-openal --enable-opengl --enable-sdl2 --enable-libdc1394 --enable-libdrm --enable-libiec61883 --enable-chromaprint --enable-frei0r --enable-libopencv --enable-libx264 --enable-shared
  libavutil      55. 78.100 / 55. 78.100
  libavcodec     57.107.100 / 57.107.100
  libavformat    57. 83.100 / 57. 83.100
  libavdevice    57. 10.100 / 57. 10.100
  libavfilter     6.107.100 /  6.107.100
  libavresample   3.  7.  0 /  3.  7.  0
  libswscale      4.  8.100 /  4.  8.100
  libswresample   2.  9.100 /  2.  9.100
  libpostproc    54.  7.100 / 54.  7.100
[rawvideo @ 0x5641faf66a20] Estimating duration from bitrate, this may be inaccurate
Input #0, rawvideo, from '../../SVC-Encoder-20220109T061506Z-001/SVC-Encoder/Dataset/RollerCoaster/6f_2x2/tile_yuv/f5_t0_480x480.yuv':
  Duration: 00:00:10.00, start: 0.000000, bitrate: 82944 kb/s
    Stream #0:0: Video: rawvideo (I420 / 0x30323449), yuv420p, 480x480, 82944 kb/s, 30 tbr, 30 tbn, 30 tbc
Stream mapping:
  Stream #0:0 -> #0:0 (rawvideo (native) -> h264 (libx264))
Press [q] to stop, [?] for help
[libx264 @ 0x5641faf73c60] using cpu capabilities: MMX2 SSE2Fast LZCNT SSSE3 SSE4.2 AVX
[libx264 @ 0x5641faf73c60] profile High, level 3.0
Output #0, rawvideo, to 'RollerCoaster_f5_t0_480x480_x264_QP_20.h264':
  Metadata:
    encoder         : Lavf57.83.100
    Stream #0:0: Video: h264 (libx264), yuv420p, 480x480, q=-1--1, 30 fps, 30 tbn, 30 tbc
    Metadata:
      encoder         : Lavc57.107.100 libx264
    Side data:
      cpb: bitrate max/min/avg: 0/0/0 buffer size: 0 vbv_delay: -1
frame=  198 fps=0.0 q=26.0 PSNR=Y:nan U:nan V:nan *:nan size=     115kB time=00:00:05.16 bitrate= 182.7kbits/s speed=10.3x    frame=  300 fps=0.0 q=26.0 LPSNR=Y:inf U:inf V:inf *:inf size=     195kB time=00:00:09.93 bitrate= 160.7kbits/s speed=11.8x    
video:195kB audio:0kB subtitle:0kB other streams:0kB global headers:0kB muxing overhead: 0.000000%
[libx264 @ 0x5641faf73c60] frame I:2     Avg QP:19.74  size:  6473  PSNR Mean Y:53.04 U:54.83 V:55.72 Avg:53.65 Global:53.62
[libx264 @ 0x5641faf73c60] frame P:96    Avg QP:20.72  size:  1575  PSNR Mean Y:51.01 U:53.36 V:54.67 Avg:51.79 Global:51.63
[libx264 @ 0x5641faf73c60] frame B:202   Avg QP:25.58  size:   175  PSNR Mean Y:50.47 U:53.73 V:54.90 Avg:51.41 Global:51.35
[libx264 @ 0x5641faf73c60] consecutive B-frames:  7.0%  8.7%  3.0% 81.3%
[libx264 @ 0x5641faf73c60] mb I  I16..4: 67.1% 29.7%  3.2%
[libx264 @ 0x5641faf73c60] mb P  I16..4:  6.1%  2.4%  0.1%  P16..4: 12.0%  3.6%  2.2%  0.0%  0.0%    skip:73.7%
[libx264 @ 0x5641faf73c60] mb B  I16..4:  0.0%  0.0%  0.0%  B16..8:  5.6%  1.3%  0.1%  direct: 0.1%  skip:92.8%  L0:32.2% L1:52.3% BI:15.5%
[libx264 @ 0x5641faf73c60] 8x8 transform intra:28.6% inter:53.4%
[libx264 @ 0x5641faf73c60] coded y,uvDC,uvAC intra: 6.3% 25.1% 2.3% inter: 2.2% 2.4% 0.0%
[libx264 @ 0x5641faf73c60] i16 v,h,dc,p: 43% 33% 13% 11%
[libx264 @ 0x5641faf73c60] i8 v,h,dc,ddl,ddr,vr,hd,vl,hu:  5% 11% 77%  2%  1%  1%  2%  1%  1%
[libx264 @ 0x5641faf73c60] i4 v,h,dc,ddl,ddr,vr,hd,vl,hu: 14% 20% 25%  6%  6%  7%  7%  4% 11%
[libx264 @ 0x5641faf73c60] i8c dc,h,v,p: 68% 21% 10%  2%
[libx264 @ 0x5641faf73c60] Weighted P-Frames: Y:0.0% UV:0.0%
[libx264 @ 0x5641faf73c60] ref P L0: 75.3% 10.4% 10.3%  4.0%
[libx264 @ 0x5641faf73c60] ref B L0: 83.6% 14.3%  2.1%
[libx264 @ 0x5641faf73c60] ref B L1: 89.9% 10.1%
[libx264 @ 0x5641faf73c60] PSNR Mean Y:50.664 U:53.617 V:54.829 Avg:51.543 Global:51.448 kb/s:159.66
